<svg height="100%" width="100%" id="svg" viewBox="0 0 1440 700" xmlns="http://www.w3.org/2000/svg" class="transition duration-300 ease-in-out delay-150"><defs><linearGradient id="gradient"><stop offset="5%" stop-color="#002bdc66"></stop><stop offset="95%" stop-color="#32ded466"></stop></linearGradient></defs><path d="M 0,700 C 0,700 0,175 0,175 C 105.64593301435409,163.2200956937799 211.29186602870817,151.4401913875598 321,161 C 430.70813397129183,170.5598086124402 544.4784688995215,201.45933014354068 617,215 C 689.5215311004785,228.54066985645932 720.7942583732058,224.7224880382775 812,212 C 903.2057416267942,199.2775119617225 1054.3444976076555,177.6507177033493 1169,170 C 1283.6555023923445,162.3492822966507 1361.8277511961724,168.67464114832535 1440,175 C 1440,175 1440,700 1440,700 Z" stroke="none" stroke-width="0" fill="url(#gradient)" class="transition-all duration-300 ease-in-out delay-150"></path><defs><linearGradient id="gradient"><stop offset="5%" stop-color="#002bdc88"></stop><stop offset="95%" stop-color="#32ded488"></stop></linearGradient></defs><path d="M 0,700 C 0,700 0,350 0,350 C 116.94736842105263,388.42105263157896 233.89473684210526,426.8421052631579 339,415 C 444.10526315789474,403.1578947368421 537.3684210526317,341.05263157894734 611,321 C 684.6315789473683,300.94736842105266 738.6315789473683,322.94736842105266 838,347 C 937.3684210526317,371.05263157894734 1082.1052631578948,397.1578947368421 1190,398 C 1297.8947368421052,398.8421052631579 1368.9473684210525,374.42105263157896 1440,350 C 1440,350 1440,700 1440,700 Z" stroke="none" stroke-width="0" fill="url(#gradient)" class="transition-all duration-300 ease-in-out delay-150"></path><defs><linearGradient id="gradient"><stop offset="5%" stop-color="#002bdcff"></stop><stop offset="95%" stop-color="#32ded4ff"></stop></linearGradient></defs><path d="M 0,700 C 0,700 0,525 0,525 C 92.84210526315789,505.8899521531101 185.68421052631578,486.77990430622015 274,501 C 362.3157894736842,515.2200956937799 446.1052631578948,562.7703349282298 547,557 C 647.8947368421052,551.2296650717702 765.8947368421053,492.13875598086116 882,477 C 998.1052631578947,461.86124401913884 1112.3157894736844,490.67464114832535 1205,506 C 1297.6842105263156,521.3253588516747 1368.842105263158,523.1626794258373 1440,525 C 1440,525 1440,700 1440,700 Z" stroke="none" stroke-width="0" fill="url(#gradient)" class="transition-all duration-300 ease-in-out delay-150"></path></svg>